<svg xmlns="http://www.w3.org/2000/svg" version="1.1" viewBox="136.82 143.19 226.42 226.85">
  <defs/>
  <path fill="#5b21b6" d="   M 253.31 143.23   Q 255.53 143.30 257.73 143.47   Q 301.29 146.88 330.81 176.69   Q 353.02 199.11 360.54 230.44   Q 362.73 239.57 363.11 250.23   Q 363.36 257.15 363.12 264.08   Q 362.86 271.34 361.60 277.83   Q 352.67 323.63 314.69 349.94   Q 283.93 371.24 245.96 369.96   Q 235.93 369.62 226.17 367.45   Q 192.62 360.00 169.06 335.94   Q 143.82 310.15 138.17 273.92   Q 136.61 263.94 136.85 254.00   Q 137.64 221.87 154.93 195.11   Q 160.32 186.76 167.26 179.40   Q 195.60 149.32 238.03 143.96   Q 245.64 143.00 253.31 143.23   Z   M 216.94 153.06   Q 221.88 152.85 231.77 155.62   A 0.85 0.83 -60.4 0 0 232.60 155.38   Q 238.61 149.06 246.73 145.86   Q 247.19 145.68 246.69 145.67   Q 230.87 145.03 216.49 151.53   Q 216.07 151.72 215.49 151.94   Q 211.93 153.28 216.94 153.06   Z   M 250.34 146.89   Q 241.65 148.83 234.79 155.58   A 0.70 0.70 -55.0 0 0 234.99 156.72   Q 242.56 160.11 250.15 161.44   A 4.69 4.65 36.3 0 0 253.04 161.01   Q 264.12 155.43 276.42 152.89   Q 277.23 152.72 276.48 152.37   Q 268.51 148.77 260.27 147.05   Q 254.78 145.90 250.34 146.89   Z   M 283.41 151.73   Q 275.35 148.02 266.75 146.24   Q 266.36 146.16 266.01 146.24   Q 265.41 146.39 266.05 146.58   Q 273.11 148.72 279.71 152.01   Q 280.71 152.50 281.49 152.47   Q 282.36 152.43 283.37 152.15   Q 283.96 151.98 283.41 151.73   Z   M 301.77 163.20   Q 296.46 158.88 290.27 155.17   Q 288.09 153.86 284.90 154.34   Q 284.16 154.45 284.80 154.83   Q 291.07 158.55 296.20 163.07   Q 298.20 164.82 301.54 164.14   Q 302.65 163.91 301.77 163.20   Z   M 254.86 162.54   Q 269.26 166.23 282.95 172.88   A 0.66 0.65 31.8 0 0 283.74 172.70   Q 288.10 167.11 295.14 164.88   Q 295.66 164.71 295.23 164.37   Q 288.41 159.02 280.91 154.84   A 2.97 2.94 55.5 0 0 279.08 154.49   Q 266.33 156.18 254.80 162.01   Q 254.12 162.35 254.86 162.54   Z   M 230.44 157.12   Q 222.83 154.88 215.48 154.97   Q 215.39 154.97 213.02 154.89   Q 210.00 154.79 207.40 156.38   Q 203.19 158.96 199.13 162.45   Q 198.63 162.88 199.26 162.70   Q 213.12 158.84 226.79 158.99   Q 226.85 158.99 228.20 159.12   Q 229.96 159.28 230.76 157.97   A 0.57 0.57 -65.8 0 0 230.44 157.12   Z   M 313.45 166.61   Q 306.05 158.64 295.83 155.88   Q 293.69 155.30 295.55 156.50   Q 300.16 159.49 304.75 163.20   Q 306.56 164.66 308.80 165.39   Q 310.89 166.07 313.23 166.94   Q 314.03 167.23 313.45 166.61   Z   M 185.30 168.07   Q 188.23 166.70 191.23 165.48   Q 193.70 164.49 195.77 162.70   Q 199.49 159.49 203.41 156.87   Q 204.75 155.98 203.21 156.43   Q 192.33 159.62 184.97 167.63   Q 184.01 168.67 185.30 168.07   Z   M 234.62 158.45   Q 233.54 157.93 232.36 158.06   Q 231.11 158.20 232.24 158.75   Q 233.86 159.53 235.62 159.25   A 0.30 0.25 -18.0 0 0 235.86 158.87   Q 235.77 158.71 235.56 158.67   Q 234.74 158.50 234.62 158.45   Z   M 181.94 190.56   Q 191.99 190.81 203.23 196.27   Q 205.37 197.31 207.10 196.99   Q 208.88 196.67 211.07 195.83   Q 211.60 195.62 211.96 195.22   L 220.73 185.44   A 1.58 1.42 71.6 0 0 221.11 184.56   Q 222.47 172.22 228.21 161.25   A 0.30 0.30 13.7 0 0 227.94 160.81   Q 211.97 160.64 196.86 165.54   Q 194.54 166.29 192.84 168.01   Q 183.25 177.74 176.74 189.81   A 0.34 0.33 -72.3 0 0 176.99 190.31   Q 178.54 190.48 181.94 190.56   Z   M 246.53 163.83   Q 243.78 162.00 240.77 161.63   Q 235.90 161.02 230.97 161.00   A 0.91 0.89 15.0 0 0 230.19 161.44   Q 224.20 171.35 222.66 183.20   Q 222.54 184.10 223.17 183.45   Q 233.32 172.91 246.51 164.83   A 0.59 0.59 46.3 0 0 246.53 163.83   Z   M 255.58 164.38   Q 254.04 163.98 252.49 163.61   A 1.59 1.17 31.5 0 0 251.54 163.69   Q 250.49 164.19 251.77 164.67   Q 252.27 164.86 252.56 165.05   Q 266.20 173.57 277.81 185.19   Q 278.39 185.77 278.56 184.96   Q 279.58 180.02 282.30 174.87   A 0.51 0.51 26.8 0 0 282.07 174.18   Q 269.03 167.90 255.58 164.38   Z   M 255.80 169.46   Q 252.75 167.50 249.94 165.72   A 1.54 1.52 -44.3 0 0 248.32 165.71   Q 234.67 173.97 222.66 185.96   A 2.70 2.07 74.1 0 0 222.00 187.63   L 221.73 193.65   A 0.60 0.56 87.3 0 0 222.37 194.27   Q 249.96 190.08 277.21 193.71   A 0.47 0.46 -85.5 0 0 277.73 193.26   L 277.96 188.24   A 1.23 1.13 -67.2 0 0 277.65 187.38   Q 267.76 177.16 255.80 169.46   Z   M 306.89 167.41   Q 304.28 165.66 300.74 166.17   Q 300.24 166.24 300.61 166.59   Q 309.18 174.66 316.46 184.74   A 0.82 0.77 62.4 0 0 317.34 185.05   L 321.85 183.55   A 0.39 0.37 61.1 0 0 322.01 182.95   Q 316.90 176.69 311.26 171.44   Q 307.08 167.53 306.89 167.41   Z   M 285.27 172.96   A 0.68 0.68 35.0 0 0 285.46 174.02   Q 296.75 179.73 307.31 187.94   A 1.73 1.56 50.9 0 0 308.96 188.20   L 314.30 185.97   A 0.62 0.58 60.5 0 0 314.52 185.06   Q 306.95 174.64 297.88 166.59   A 1.13 1.05 60.5 0 0 297.00 166.31   Q 290.52 167.15 285.27 172.96   Z   M 316.56 170.69   Q 314.79 169.16 310.98 168.13   Q 310.52 168.00 310.85 168.35   L 322.35 180.32   Q 322.69 180.67 322.53 180.21   Q 320.43 174.02 316.56 170.69   Z   M 179.04 176.12   Q 175.47 182.38 173.81 189.47   Q 173.75 189.73 173.59 190.01   Q 172.97 191.07 173.83 190.64   A 1.42 1.09 -83.0 0 0 174.38 190.08   Q 180.26 179.08 189.14 169.17   Q 189.70 168.55 188.90 168.80   Q 185.52 169.89 183.13 171.45   Q 180.86 172.94 179.04 176.12   Z   M 318.71 169.23   Q 320.96 170.59 318.30 168.49   A 0.30 0.24 26.9 0 0 317.84 168.59   Q 317.79 168.87 318.14 169.00   Q 318.58 169.15 318.71 169.23   Z   M 180.06 170.14   Q 179.01 170.45 178.11 172.00   Q 177.88 172.42 178.23 172.12   L 180.24 170.45   Q 180.91 169.89 180.06 170.14   Z   M 329.47 179.76   Q 325.82 176.52 321.73 173.84   Q 321.33 173.57 321.53 174.00   L 325.36 181.98   A 0.78 0.73 75.6 0 0 326.07 182.43   L 331.11 182.21   Q 331.63 182.19 331.30 181.77   Q 330.26 180.46 329.47 179.76   Z   M 164.32 186.08   Q 158.81 192.39 154.69 199.69   Q 154.53 199.97 154.78 200.01   A 0.55 0.36 -57.1 0 0 155.16 199.84   Q 161.91 193.25 171.24 191.50   A 0.65 0.64 0.6 0 0 171.75 191.01   Q 173.40 183.26 177.32 175.43   Q 177.61 174.85 177.06 175.20   Q 169.74 179.87 164.32 186.08   Z   M 283.34 175.39   Q 280.64 180.70 279.71 186.47   A 1.10 1.03 29.2 0 0 279.99 187.36   L 286.29 194.20   A 3.20 1.89 62.8 0 0 287.83 195.17   L 293.25 196.22   A 1.57 0.71 -37.7 0 0 294.18 196.00   L 305.70 189.91   A 0.60 0.58 -40.2 0 0 305.80 188.93   Q 295.55 181.09 284.03 175.17   A 0.52 0.51 26.8 0 0 283.34 175.39   Z   M 335.79 197.63   Q 337.48 194.07 337.79 190.27   A 3.76 3.70 30.8 0 0 337.17 187.91   Q 333.77 182.85 327.24 184.15   A 0.86 0.86 66.7 0 0 326.71 185.49   L 335.28 197.68   A 0.30 0.29 -50.1 0 0 335.79 197.63   Z   M 322.51 184.97   L 318.32 186.26   A 0.44 0.40 66.2 0 0 318.11 186.88   L 328.28 205.06   Q 328.50 205.45 328.47 205.01   Q 327.85 195.56 324.87 186.37   Q 324.25 184.44 322.51 184.97   Z   M 310.05 189.85   Q 318.75 197.22 325.42 204.63   Q 325.75 205.00 325.56 204.53   Q 321.93 195.56 316.09 187.37   A 0.68 0.66 -28.2 0 0 315.30 187.14   L 310.16 189.18   A 0.40 0.39 54.4 0 0 310.05 189.85   Z   M 218.26 190.28   Q 216.37 192.39 214.51 194.93   Q 214.01 195.61 214.87 195.46   L 220.14 194.49   A 0.76 0.68 -6.2 0 0 220.75 193.81   L 220.75 188.61   Q 220.75 188.00 220.28 188.38   Q 219.09 189.36 218.26 190.28   Z   M 279.26 189.59   L 279.03 193.33   A 0.64 0.60 5.6 0 0 279.58 193.96   L 283.58 194.52   Q 284.75 194.68 283.91 193.79   L 279.85 189.44   Q 279.31 188.86 279.26 189.59   Z   M 316.94 198.30   Q 312.77 194.45 308.06 190.74   A 0.80 0.80 -38.9 0 0 307.20 190.65   L 295.68 196.44   Q 294.95 196.81 295.74 197.00   Q 310.45 200.50 324.23 206.83   Q 325.38 207.36 324.58 206.38   Q 321.25 202.26 316.94 198.30   Z   M 330.96 206.85   L 334.36 200.82   A 1.19 1.01 44.9 0 0 334.26 199.66   L 328.74 191.49   Q 327.64 189.85 328.08 191.76   Q 329.70 198.75 330.02 206.58   Q 330.10 208.37 330.96 206.85   Z   M 339.46 191.70   L 336.94 199.29   A 1.20 0.82 -58.4 0 0 336.98 200.19   L 342.04 208.78   A 0.94 0.81 -13.3 0 0 342.81 209.18   Q 346.74 209.12 349.80 210.25   Q 351.24 210.77 350.59 209.39   Q 346.14 199.94 340.03 191.60   Q 339.66 191.10 339.46 191.70   Z   M 202.93 197.73   Q 189.86 191.46 176.06 192.28   A 0.99 0.98 14.6 0 0 175.29 192.73   Q 170.89 199.70 171.32 209.54   A 0.65 0.65 -15.1 0 0 172.28 210.09   Q 187.18 202.21 202.88 198.20   Q 203.55 198.03 202.93 197.73   Z   M 154.07 203.08   Q 151.53 205.89 150.81 207.81   Q 146.68 218.91 146.03 230.30   Q 145.93 232.00 146.98 230.66   Q 154.10 221.61 163.98 215.25   A 2.24 2.20 -8.8 0 0 164.90 214.02   Q 167.05 206.55 170.05 199.09   Q 170.42 198.18 170.55 196.82   Q 170.66 195.64 171.01 194.48   Q 171.48 192.93 169.91 193.34   Q 160.68 195.77 154.07 203.08   Z   M 223.60 208.93   Q 234.88 218.50 243.62 228.80   A 1.04 1.03 -39.1 0 0 245.05 228.94   Q 261.37 216.13 278.20 205.43   A 1.02 0.99 -19.6 0 0 278.67 204.47   L 277.63 195.69   A 0.67 0.65 0.7 0 0 277.06 195.12   Q 250.37 191.52 222.71 195.66   A 0.87 0.84 -6.5 0 0 221.97 196.56   L 222.76 207.33   A 2.46 2.22 20.2 0 0 223.60 208.93   Z   M 285.56 196.44   Q 282.73 195.72 279.48 195.41   A 0.43 0.42 0.1 0 0 279.01 195.87   L 279.73 203.31   A 0.56 0.56 -17.6 0 0 280.56 203.74   L 287.82 199.51   A 0.60 0.58 -26.1 0 0 288.08 198.78   Q 287.32 196.88 285.56 196.44   Z   M 211.08 200.24   L 220.65 206.68   Q 221.62 207.33 221.52 206.14   L 220.75 196.44   A 0.48 0.44 83.7 0 0 220.24 196.00   L 212.98 197.17   A 1.58 0.97 -61.9 0 0 212.18 197.64   L 210.95 198.91   A 0.88 0.86 -51.2 0 0 211.08 200.24   Z   M 289.24 197.67   Q 289.41 198.45 290.14 197.85   A 0.53 0.45 -43.9 0 0 290.21 197.10   Q 289.97 196.91 289.65 196.98   A 0.58 0.54 77.9 0 0 289.24 197.67   Z   M 325.67 209.37   Q 311.39 202.32 295.79 198.39   Q 295.74 198.37 294.74 198.02   Q 293.02 197.41 291.24 199.12   A 0.59 0.57 50.7 0 0 291.18 199.88   L 302.04 214.78   A 0.75 0.74 -23.5 0 0 302.80 215.07   L 325.51 210.41   Q 327.12 210.08 325.67 209.37   Z   M 206.19 199.22   A 1.82 1.75 46.2 0 0 205.21 199.18   Q 187.94 203.57 172.13 212.16   A 1.49 1.48 74.7 0 0 171.36 213.53   Q 172.21 230.81 176.31 246.08   A 1.15 1.01 -86.4 0 0 176.87 246.80   L 180.34 248.50   A 0.50 0.48 -66.2 0 0 181.00 248.23   Q 191.03 222.57 207.64 200.83   A 0.66 0.57 -49.2 0 0 207.64 200.03   Q 207.18 199.56 206.19 199.22   Z   M 288.93 200.19   L 280.72 205.51   A 0.80 0.74 69.2 0 0 280.40 206.31   Q 281.73 213.28 284.55 219.79   A 0.57 0.57 70.1 0 0 285.23 220.11   L 299.78 216.05   A 0.60 0.59 -25.2 0 0 300.12 215.14   L 289.53 200.32   A 0.46 0.44 56.1 0 0 288.93 200.19   Z   M 221.69 208.98   Q 215.99 204.50 210.00 201.30   A 0.59 0.58 33.0 0 0 209.26 201.45   Q 192.43 223.31 182.43 249.03   A 0.66 0.61 29.2 0 0 182.67 249.77   L 193.12 257.43   A 0.83 0.74 48.1 0 0 193.94 257.52   Q 211.66 248.32 229.99 240.38   A 0.52 0.51 68.1 0 0 230.26 239.72   Q 224.55 225.04 222.00 209.52   A 0.86 0.86 15.2 0 0 221.69 208.98   Z   M 335.24 202.37   L 331.10 209.06   Q 330.80 209.54 331.33 209.51   L 339.19 209.00   A 0.36 0.35 -16.2 0 0 339.49 208.48   L 335.98 202.31   A 0.46 0.40 -45.9 0 0 335.24 202.37   Z   M 169.21 206.20   Q 168.10 209.18 167.24 212.30   Q 167.10 212.79 167.58 212.64   Q 169.79 211.91 169.57 209.99   Q 169.35 208.19 169.71 206.42   Q 169.75 206.23 169.72 206.08   Q 169.54 205.32 169.21 206.20   Z   M 248.53 232.79   L 282.67 220.87   A 0.74 0.71 -20.8 0 0 283.12 219.92   Q 280.58 213.59 279.26 206.92   A 0.46 0.45 68.2 0 0 278.57 206.62   Q 261.93 217.33 247.02 228.79   Q 245.58 229.90 245.50 230.19   Q 245.24 231.10 246.90 232.51   A 1.71 1.62 -33.7 0 0 248.53 232.79   Z   M 333.43 211.81   Q 339.59 215.52 345.08 220.20   Q 345.99 220.98 345.46 219.91   L 340.99 210.94   A 0.81 0.80 -14.2 0 0 340.24 210.50   L 333.67 210.77   Q 331.83 210.84 333.43 211.81   Z   M 223.95 210.99   Q 223.24 210.43 223.40 211.32   Q 225.82 225.35 231.37 238.98   A 0.39 0.38 -30.2 0 0 231.96 239.13   L 242.86 230.56   A 0.50 0.50 4.8 0 0 242.94 229.86   Q 234.85 219.77 223.95 210.99   Z   M 349.78 224.10   Q 351.80 222.01 352.97 219.63   Q 353.95 217.64 353.42 215.74   Q 352.76 213.43 350.94 212.31   Q 348.20 210.63 343.56 210.79   A 0.33 0.32 76.5 0 0 343.28 211.25   L 349.22 224.00   A 0.34 0.34 54.8 0 0 349.78 224.10   Z   M 327.62 211.62   Q 327.93 211.19 327.40 211.26   Q 315.50 213.02 303.40 216.09   A 0.48 0.46 67.6 0 0 303.12 216.79   L 311.24 230.99   A 0.37 0.35 51.6 0 0 311.81 231.07   Q 320.28 222.03 327.62 211.62   Z   M 162.79 243.96   L 173.95 245.81   A 0.32 0.30 -2.2 0 0 174.31 245.44   Q 170.50 230.10 169.71 214.31   A 0.36 0.35 77.4 0 0 169.22 213.99   Q 168.16 214.41 167.26 215.09   Q 166.28 215.84 165.92 217.32   Q 162.91 229.53 161.93 242.95   A 1.02 0.94 6.8 0 0 162.79 243.96   Z   M 327.79 214.24   L 312.84 232.22   A 1.48 1.47 -37.9 0 0 312.64 233.78   L 318.68 246.72   A 0.59 0.54 61.9 0 0 319.47 247.00   L 323.90 244.36   A 1.33 1.05 86.1 0 0 324.43 243.58   Q 327.81 229.96 328.57 214.53   Q 328.64 213.22 327.79 214.24   Z   M 347.47 224.98   Q 340.34 218.30 334.30 214.43   Q 332.54 213.30 333.82 214.95   Q 339.16 221.80 343.49 229.76   A 0.44 0.41 55.0 0 0 344.15 229.90   L 347.60 226.75   A 1.30 1.11 45.1 0 0 347.47 224.98   Z   M 330.19 216.67   Q 329.37 229.44 326.67 241.94   Q 326.56 242.44 327.00 242.21   Q 331.62 239.71 335.62 236.32   A 0.83 0.82 -26.1 0 0 335.90 235.52   Q 333.98 225.83 330.78 216.59   Q 330.29 215.16 330.19 216.67   Z   M 305.93 237.92   Q 307.86 235.86 310.18 233.27   A 1.05 1.03 -39.0 0 0 310.32 232.07   L 301.72 217.12   A 0.56 0.55 66.6 0 0 301.08 216.86   L 285.78 221.40   A 0.48 0.45 70.6 0 0 285.50 222.03   Q 290.51 233.91 298.70 244.40   A 0.47 0.47 49.0 0 0 299.39 244.45   Q 303.04 241.03 305.93 237.92   Z   M 338.10 234.61   L 341.97 231.65   A 0.60 0.58 55.5 0 0 342.10 230.86   L 333.39 217.10   Q 333.09 216.63 332.98 217.08   Q 332.94 217.26 333.01 217.50   Q 335.55 225.26 337.48 234.35   A 0.41 0.38 65.8 0 0 338.10 234.61   Z   M 152.36 227.11   Q 148.96 230.67 146.22 234.76   A 1.88 1.79 -28.5 0 0 145.92 235.69   Q 145.70 243.18 147.45 250.45   Q 147.56 250.93 147.92 250.57   Q 152.84 245.64 159.70 244.28   A 0.65 0.64 -4.2 0 0 160.22 243.69   Q 160.96 230.56 163.87 218.28   Q 164.13 217.20 163.23 217.84   Q 157.04 222.22 152.36 227.11   Z   M 354.35 220.43   L 350.87 225.25   A 0.61 0.61 -45.9 0 0 350.88 225.98   L 356.94 233.82   Q 357.74 234.85 357.48 233.62   L 354.76 220.49   Q 354.66 220.01 354.35 220.43   Z   M 144.41 222.32   Q 143.06 228.85 142.48 235.70   Q 142.36 237.11 143.20 235.97   Q 143.83 235.12 143.86 233.75   Q 144.00 228.05 144.79 222.42   Q 144.95 221.23 144.50 222.07   Q 144.44 222.18 144.41 222.32   Z   M 269.75 271.13   Q 284.87 258.82 297.40 246.10   A 0.57 0.56 48.7 0 0 297.44 245.35   Q 289.29 234.65 283.98 222.42   A 0.68 0.66 68.7 0 0 283.14 222.04   L 248.71 234.01   A 0.60 0.59 62.2 0 0 248.44 234.92   Q 260.95 252.05 269.12 270.98   A 0.41 0.40 -31.2 0 0 269.75 271.13   Z   M 354.40 256.49   Q 356.20 253.56 355.67 251.02   Q 353.28 239.44 348.93 228.46   A 0.41 0.37 60.0 0 0 348.32 228.26   L 345.01 231.17   A 1.14 0.99 56.9 0 0 344.83 232.47   Q 350.88 244.42 353.68 256.38   Q 353.90 257.30 354.40 256.49   Z   M 357.11 247.35   Q 358.07 243.64 357.63 240.39   Q 357.31 238.09 355.40 235.09   Q 353.86 232.67 352.17 230.23   Q 351.12 228.72 351.66 230.49   L 356.79 247.35   Q 356.96 247.92 357.11 247.35   Z   M 237.01 237.48   L 245.47 234.10   A 0.51 0.48 -21.7 0 0 245.77 233.46   Q 245.31 232.34 244.39 231.56   A 0.65 0.62 -42.9 0 0 243.59 231.55   L 236.68 236.94   Q 234.94 238.30 237.01 237.48   Z   M 352.10 260.19   A 1.67 1.66 -32.3 0 0 352.41 258.83   Q 349.55 245.76 343.36 233.53   A 0.88 0.82 -32.8 0 0 342.07 233.30   L 338.68 235.94   A 1.77 1.49 -26.4 0 0 338.00 237.51   Q 340.69 252.13 340.24 267.18   A 0.30 0.29 85.3 0 0 340.59 267.48   Q 347.48 266.15 352.10 260.19   Z   M 310.75 234.62   L 300.03 245.34   A 0.56 0.53 -44.3 0 0 300.00 246.09   L 306.80 253.43   A 0.86 0.82 -35.3 0 0 307.81 253.58   L 316.84 248.61   A 1.09 1.06 -26.8 0 0 317.32 247.21   L 311.51 234.74   A 0.48 0.46 -35.3 0 0 310.75 234.62   Z   M 254.38 278.05   L 267.90 272.57   A 0.51 0.50 67.4 0 0 268.17 271.90   Q 259.88 252.39 247.31 235.34   A 0.92 0.90 60.3 0 0 246.23 235.03   L 232.56 240.63   A 0.60 0.59 67.1 0 0 232.25 241.41   Q 240.39 260.71 252.97 277.63   A 1.22 1.18 60.7 0 0 254.38 278.05   Z   M 359.44 238.06   Q 359.59 238.27 359.78 239.48   Q 359.82 239.70 359.92 239.88   Q 360.47 240.80 360.44 239.56   Q 360.43 239.20 359.83 237.67   A 0.44 0.32 64.8 0 0 359.31 237.39   Q 359.04 237.55 359.44 238.06   Z   M 325.88 265.85   Q 331.41 267.97 337.00 268.00   A 1.73 1.73 39.1 0 0 338.74 266.28   Q 338.83 251.94 336.60 238.27   A 0.50 0.49 68.1 0 0 335.84 237.94   L 326.35 244.40   A 1.42 1.22 84.4 0 0 325.82 245.16   L 322.65 256.28   A 1.66 1.63 44.4 0 0 322.67 257.22   L 325.16 265.05   A 1.28 1.18 -89.3 0 0 325.88 265.85   Z   M 140.12 240.54   Q 139.31 245.01 140.66 239.63   A 1.26 0.94 -57.8 0 0 140.60 238.87   Q 140.26 238.20 140.20 239.83   Q 140.18 240.21 140.12 240.54   Z   M 144.22 256.19   Q 145.01 255.11 145.42 253.96   Q 145.78 252.97 145.56 251.51   Q 144.68 245.68 144.22 239.81   A 0.33 0.31 73.4 0 0 143.75 239.54   Q 142.26 240.41 142.31 241.81   Q 142.59 249.08 143.72 256.07   Q 143.83 256.72 144.22 256.19   Z   M 230.41 242.25   Q 215.95 254.17 202.85 267.15   A 0.57 0.56 48.7 0 0 202.81 267.90   Q 210.92 278.39 216.29 290.80   A 0.79 0.79 -20.3 0 0 217.26 291.24   Q 235.00 285.61 252.03 278.98   A 0.29 0.29 -28.9 0 0 252.16 278.53   Q 239.94 262.06 231.53 242.52   A 0.73 0.72 -31.3 0 0 230.41 242.25   Z   M 213.39 255.40   Q 220.21 249.20 226.52 243.76   Q 227.90 242.57 226.24 243.31   Q 210.15 250.40 194.95 258.24   A 0.61 0.59 54.4 0 0 194.81 259.19   L 201.34 266.02   A 0.52 0.52 46.2 0 0 202.07 266.04   Q 207.89 260.39 213.39 255.40   Z   M 359.45 245.62   Q 359.06 248.11 358.55 250.55   Q 358.03 253.00 358.44 255.48   Q 359.21 260.25 359.51 265.22   Q 359.68 267.88 360.35 265.31   Q 362.99 255.33 360.16 245.57   Q 359.70 244.01 359.45 245.62   Z   M 174.32 247.19   Q 168.51 244.88 162.58 245.23   A 0.86 0.86 -1.1 0 0 161.77 246.07   Q 161.38 260.90 163.97 275.01   A 0.49 0.48 -22.9 0 0 164.72 275.31   L 173.64 269.24   A 2.26 1.89 -12.9 0 0 174.47 268.14   L 177.67 257.38   A 1.93 1.68 48.4 0 0 177.66 256.34   L 175.30 248.28   A 1.74 1.66 -88.2 0 0 174.32 247.19   Z   M 149.09 251.85   Q 148.55 252.46 148.05 253.10   A 1.12 1.09 57.8 0 0 147.86 254.00   Q 150.90 267.11 157.02 279.61   A 0.82 0.82 57.0 0 0 158.28 279.88   L 162.05 276.76   A 0.88 0.86 -24.6 0 0 162.36 275.95   Q 159.94 261.57 160.00 246.34   A 0.55 0.55 84.2 0 0 159.33 245.79   Q 153.27 247.09 149.09 251.85   Z   M 321.79 253.13   L 323.75 246.74   Q 324.09 245.62 323.13 246.22   L 319.90 248.21   A 0.64 0.63 64.2 0 0 319.64 248.98   L 321.23 253.17   Q 321.54 253.96 321.79 253.13   Z   M 273.05 270.32   Q 289.53 263.07 305.39 254.71   A 0.51 0.51 -36.0 0 0 305.52 253.90   L 298.91 247.17   A 0.50 0.50 -44.6 0 0 298.20 247.17   Q 286.01 259.17 272.87 270.02   Q 271.88 270.83 273.05 270.32   Z   M 140.86 267.80   Q 141.31 265.35 141.79 262.77   Q 142.24 260.32 141.86 257.72   Q 141.11 252.65 140.72 247.54   Q 140.66 246.76 140.24 247.22   Q 140.09 247.40 140.00 247.75   Q 137.52 257.81 140.19 267.83   Q 140.58 269.30 140.86 267.80   Z   M 178.52 248.98   Q 176.54 247.31 177.29 249.70   L 178.26 252.79   Q 178.48 253.49 178.97 252.92   Q 180.74 250.85 178.52 248.98   Z   M 308.93 255.25   L 318.22 262.13   A 0.58 0.54 -63.8 0 0 319.07 261.81   L 320.60 256.97   A 1.50 1.38 -47.9 0 0 320.59 256.02   L 318.38 250.02   A 0.54 0.53 65.3 0 0 317.62 249.73   L 308.99 254.45   A 0.48 0.47 49.4 0 0 308.93 255.25   Z   M 188.11 255.12   Q 185.26 252.93 182.45 251.22   A 0.79 0.78 25.9 0 0 181.31 251.61   L 179.67 256.03   A 1.35 1.28 -46.6 0 0 179.67 256.97   L 182.11 263.22   A 0.46 0.46 65.2 0 0 182.76 263.46   L 191.62 258.65   A 0.37 0.37 51.2 0 0 191.68 258.05   Q 189.95 256.53 188.11 255.12   Z   M 278.87 304.38   L 290.31 312.03   A 0.57 0.53 -54.2 0 0 291.06 311.88   Q 308.04 289.82 318.04 264.15   A 0.70 0.70 -64.3 0 0 317.74 263.29   Q 312.30 260.07 307.43 255.87   A 1.03 1.02 -38.0 0 0 306.29 255.74   Q 288.19 265.16 270.71 272.64   A 0.90 0.90 67.9 0 0 270.23 273.79   Q 275.80 288.36 278.34 303.51   A 1.34 1.16 -80.5 0 0 278.87 304.38   Z   M 146.03 256.77   L 144.43 260.04   A 1.71 1.13 61.4 0 0 144.35 261.00   Q 146.78 273.19 151.38 284.73   A 0.43 0.37 60.0 0 0 152.00 284.94   L 155.64 281.70   A 0.75 0.56 56.8 0 0 155.69 280.87   Q 149.57 269.69 146.66 256.86   Q 146.45 255.92 146.03 256.77   Z   M 356.56 257.04   Q 355.54 258.13 355.08 259.24   Q 354.70 260.17 354.97 261.79   Q 355.86 267.08 356.31 273.11   Q 356.39 274.09 357.00 273.32   Q 357.86 272.23 357.86 271.25   Q 357.84 264.09 356.77 257.11   Q 356.73 256.86 356.56 257.04   Z   M 178.78 259.85   L 176.50 266.77   Q 176.19 267.68 177.03 267.12   L 180.19 265.00   A 1.19 1.10 63.7 0 0 180.59 263.64   L 179.22 259.88   Q 178.98 259.23 178.78 259.85   Z   M 189.49 278.89   L 200.15 267.96   A 0.79 0.76 -45.0 0 0 200.17 266.88   L 193.42 259.81   A 0.69 0.66 -35.8 0 0 192.60 259.70   L 183.41 264.80   A 0.85 0.85 63.3 0 0 183.05 265.90   L 188.88 278.79   A 0.38 0.37 -35.5 0 0 189.49 278.89   Z   M 320.70 263.57   L 322.86 264.65   Q 323.33 264.88 323.22 264.36   Q 321.64 256.48 320.42 262.95   A 0.58 0.53 -71.9 0 0 320.70 263.57   Z   M 352.57 262.40   Q 346.86 267.62 340.82 268.74   A 0.94 0.93 -3.5 0 0 340.05 269.61   Q 339.28 282.99 336.43 295.20   Q 336.31 295.69 336.74 295.42   Q 347.42 288.58 354.23 277.93   A 1.71 1.70 60.7 0 0 354.49 276.99   Q 354.40 270.37 353.08 262.58   Q 352.99 262.02 352.57 262.40   Z   M 292.69 313.08   Q 294.19 314.53 295.53 314.00   Q 296.48 313.63 296.52 313.62   Q 312.90 309.37 328.00 301.02   A 1.45 1.44 -15.6 0 0 328.74 299.71   Q 328.27 283.36 324.06 267.29   A 1.31 0.86 88.7 0 0 323.53 266.52   L 319.96 264.67   A 0.50 0.44 -65.4 0 0 319.32 264.96   Q 309.25 290.41 292.62 312.27   A 0.62 0.61 40.5 0 0 292.69 313.08   Z   M 143.19 266.42   Q 142.71 268.87 142.64 271.35   Q 142.58 273.82 143.70 276.05   Q 145.56 279.74 148.35 282.82   Q 148.69 283.19 148.52 282.72   Q 145.59 274.43 143.82 266.41   Q 143.49 264.92 143.19 266.42   Z   M 175.82 269.93   Q 172.32 284.47 171.59 298.94   Q 171.50 300.61 172.49 299.26   Q 179.28 290.00 187.67 280.90   A 1.05 0.96 55.4 0 0 187.82 279.79   L 181.80 266.47   A 0.51 0.42 63.5 0 0 181.17 266.19   L 176.32 269.11   A 1.41 0.78 -87.6 0 0 175.82 269.93   Z   M 334.32 269.15   Q 330.06 268.62 326.19 267.32   Q 325.58 267.11 325.75 267.73   Q 329.84 283.09 330.78 298.94   A 0.37 0.37 76.5 0 0 331.29 299.26   Q 332.28 298.85 333.09 298.16   Q 333.96 297.44 334.32 296.00   Q 337.56 283.32 338.26 270.03   A 0.77 0.76 -89.3 0 0 337.47 269.22   Q 335.53 269.30 334.32 269.15   Z   M 193.12 277.13   Q 191.69 278.69 190.26 280.11   A 0.56 0.55 54.4 0 0 190.16 280.75   Q 194.23 288.95 199.03 296.03   A 0.72 0.70 64.8 0 0 199.80 296.32   L 214.63 292.12   A 0.68 0.67 70.0 0 0 215.05 291.19   Q 209.81 279.22 201.97 269.14   A 0.60 0.60 -41.0 0 0 201.08 269.08   Q 196.65 273.28 193.12 277.13   Z   M 164.51 277.42   Q 165.96 287.27 169.75 296.48   Q 169.94 296.94 169.97 296.44   Q 170.86 284.58 173.59 271.35   Q 173.74 270.64 173.16 271.03   L 164.82 276.62   A 0.86 0.73 71.0 0 0 164.51 277.42   Z   M 360.20 272.93   Q 360.30 276.88 360.65 271.56   A 0.48 0.39 88.7 0 0 360.20 271.03   Q 359.68 271.12 359.99 271.98   Q 360.19 272.52 360.20 272.93   Z   M 140.18 274.44   Q 140.09 277.22 140.69 274.96   Q 140.75 274.75 140.71 274.53   Q 140.26 271.88 140.18 274.44   Z   M 269.83 296.67   Q 272.96 299.56 276.63 302.43   Q 277.15 302.84 277.03 302.19   Q 274.48 287.56 269.24 274.39   A 0.79 0.76 -30.5 0 0 268.03 274.10   L 257.55 282.58   A 0.55 0.54 -38.6 0 0 257.46 283.34   Q 263.13 290.47 269.83 296.67   Z   M 257.21 281.27   L 264.30 275.64   Q 264.77 275.27 264.22 275.49   L 255.03 279.12   A 0.62 0.57 -18.2 0 0 254.65 279.80   Q 255.00 281.20 256.31 281.49   A 1.13 1.01 -55.8 0 0 257.21 281.27   Z   M 355.04 292.25   Q 354.95 293.54 354.55 294.77   Q 354.20 295.81 355.00 294.75   Q 355.64 293.91 355.46 292.25   Q 357.81 284.55 357.75 276.58   Q 357.74 275.24 357.25 276.49   Q 356.31 278.91 356.18 281.47   Q 355.93 286.49 355.93 286.50   Q 355.53 289.38 355.04 292.25   Z   M 167.32 295.71   L 162.85 278.99   A 0.43 0.41 70.6 0 0 162.28 278.70   Q 160.17 279.66 158.58 281.38   A 0.72 0.70 53.4 0 0 158.47 282.19   Q 162.17 289.55 166.88 295.93   Q 167.67 297.01 167.32 295.71   Z   M 145.89 292.52   L 149.25 287.69   A 0.74 0.62 44.6 0 0 149.17 286.88   L 143.24 279.24   Q 142.32 278.05 142.63 279.48   L 145.40 292.42   Q 145.53 293.04 145.89 292.52   Z   M 254.10 281.00   Q 253.40 279.88 251.75 280.50   Q 235.13 286.75 217.59 292.46   A 0.60 0.59 69.7 0 0 217.23 293.25   Q 219.82 299.39 221.07 306.11   A 0.60 0.59 -21.6 0 0 221.98 306.50   Q 238.73 295.82 254.75 283.50   Q 255.93 282.59 254.74 281.71   Q 254.38 281.45 254.10 281.00   Z   M 188.36 282.19   Q 179.67 291.53 172.95 300.97   Q 172.31 301.86 173.40 301.69   Q 185.20 299.85 196.89 296.97   A 0.54 0.52 67.3 0 0 197.20 296.18   L 189.07 282.28   A 0.45 0.44 51.9 0 0 188.36 282.19   Z   M 353.88 282.20   Q 346.24 291.64 336.35 298.16   A 1.52 1.47 -8.3 0 0 335.78 298.90   Q 334.22 303.64 332.58 308.36   Q 332.54 308.46 331.15 311.95   Q 329.71 315.57 329.52 319.50   A 0.38 0.36 -5.9 0 0 329.99 319.87   Q 340.13 317.10 346.87 309.48   Q 349.59 306.41 351.03 301.96   Q 353.99 292.83 354.56 282.46   Q 354.62 281.28 353.88 282.20   Z   M 155.82 291.20   Q 160.68 295.44 166.20 298.82   Q 167.56 299.65 166.59 298.39   Q 161.50 291.81 157.05 283.71   A 0.64 0.63 54.1 0 0 156.06 283.54   L 152.92 286.44   A 1.25 1.22 48.1 0 0 152.85 288.15   Q 154.48 290.04 155.82 291.20   Z   M 276.64 304.31   Q 265.59 294.92 256.54 284.27   A 0.78 0.78 -39.6 0 0 255.46 284.17   Q 239.42 296.80 221.88 307.88   A 0.88 0.76 72.2 0 0 221.54 308.68   L 222.49 317.49   A 0.78 0.70 89.6 0 0 223.11 318.17   Q 250.29 321.55 277.62 317.62   A 0.73 0.69 -5.7 0 0 278.25 316.89   L 277.45 305.83   A 2.37 2.03 21.4 0 0 276.64 304.31   Z   M 148.94 300.56   Q 151.89 302.74 156.75 302.30   A 0.35 0.34 74.5 0 0 157.02 301.80   L 151.02 289.09   A 0.32 0.32 53.1 0 0 150.49 289.01   Q 149.29 290.43 148.28 291.98   Q 147.08 293.82 146.83 295.35   Q 146.31 298.63 148.94 300.56   Z   M 160.43 302.59   L 167.00 302.51   Q 168.56 302.49 167.23 301.54   L 155.71 293.39   Q 155.32 293.11 155.45 293.54   Q 156.84 298.19 159.64 302.15   A 1.05 0.86 68.6 0 0 160.43 302.59   Z   M 220.09 307.29   Q 218.53 300.09 216.06 293.64   A 0.82 0.80 -18.3 0 0 215.07 293.16   L 200.36 297.29   A 0.37 0.37 66.5 0 0 200.14 297.85   Q 205.23 305.78 210.93 312.62   A 0.61 0.57 54.0 0 0 211.69 312.77   L 219.93 307.69   A 0.40 0.36 70.1 0 0 220.09 307.29   Z   M 174.55 303.62   Q 190.19 311.37 206.76 315.38   A 1.25 0.67 22.6 0 0 207.70 315.29   L 209.18 314.14   A 0.63 0.48 54.2 0 0 209.20 313.36   L 198.68 298.55   A 1.29 1.20 64.0 0 0 197.35 298.04   Q 185.93 301.12 174.70 302.72   Q 173.18 302.94 174.55 303.62   Z   M 330.69 306.95   Q 330.60 308.46 331.07 307.03   L 333.03 301.14   Q 333.26 300.46 332.55 300.67   Q 330.27 301.35 330.54 303.28   Q 330.80 305.10 330.69 306.95   Z   M 156.88 304.24   L 149.83 302.91   Q 149.34 302.81 149.55 303.26   Q 154.14 313.13 160.45 321.59   Q 160.74 321.98 160.89 321.51   L 163.33 313.72   A 1.17 1.08 -52.5 0 0 163.25 312.81   L 159.34 305.95   Q 158.54 304.55 156.88 304.24   Z   M 297.89 315.79   Q 310.47 321.58 324.26 321.02   A 0.96 0.94 -74.4 0 0 325.02 320.58   Q 329.64 313.40 328.90 303.45   A 0.58 0.58 -16.3 0 0 328.04 302.98   Q 313.89 310.74 297.97 314.90   Q 296.69 315.24 297.89 315.79   Z   M 164.86 311.17   L 169.26 303.99   Q 169.58 303.47 168.95 303.51   L 160.84 304.00   A 0.31 0.30 -16.4 0 0 160.58 304.45   L 164.55 311.17   A 0.18 0.18 -44.4 0 0 164.86 311.17   Z   M 169.66 305.86   L 165.95 312.54   A 0.86 0.78 44.1 0 0 166.01 313.42   L 171.20 321.08   Q 172.49 322.99 172.00 320.71   Q 170.67 314.48 170.18 306.00   Q 170.12 305.03 169.66 305.86   Z   M 175.23 306.34   Q 183.05 314.98 192.15 322.47   A 0.84 0.76 50.0 0 0 193.01 322.59   L 204.27 316.96   Q 205.29 316.45 204.16 316.19   Q 189.32 312.77 175.51 305.97   Q 174.42 305.43 175.23 306.34   Z   M 289.11 312.81   Q 284.05 309.58 279.17 306.05   Q 278.72 305.72 278.76 306.31   L 279.50 316.37   A 0.88 0.82 84.4 0 0 280.43 317.19   Q 283.48 316.74 286.82 316.03   Q 287.96 315.79 288.60 315.18   Q 289.34 314.47 289.83 313.54   A 0.35 0.30 -59.1 0 0 289.76 313.13   Q 289.66 313.05 289.54 313.00   Q 289.18 312.85 289.11 312.81   Z   M 172.18 308.69   Q 172.34 318.53 175.99 327.35   A 0.92 0.87 81.9 0 0 176.68 327.90   Q 179.56 328.32 182.09 326.77   A 0.49 0.48 57.3 0 0 182.23 326.09   Q 176.88 317.85 172.65 308.59   Q 172.17 307.52 172.18 308.69   Z   M 190.34 323.17   Q 181.95 316.14 174.66 308.43   Q 174.31 308.06 174.51 308.52   Q 178.49 317.55 184.21 325.59   A 0.70 0.61 60.7 0 0 184.98 325.87   L 190.28 323.73   A 0.34 0.32 53.0 0 0 190.34 323.17   Z   M 220.03 309.36   L 212.49 313.79   A 0.53 0.51 -30.8 0 0 212.30 314.50   Q 212.87 315.48 213.71 316.19   Q 214.55 316.89 216.13 317.12   Q 218.15 317.41 220.34 317.81   A 0.82 0.81 2.1 0 0 221.30 316.92   L 220.47 309.59   A 0.30 0.29 71.9 0 0 220.03 309.36   Z   M 345.28 313.86   Q 338.31 319.96 329.42 322.07   A 0.85 0.84 -89.4 0 0 328.81 322.67   Q 326.72 330.64 323.06 337.88   Q 322.62 338.76 323.43 338.19   Q 337.06 328.74 345.61 314.14   Q 346.30 312.96 345.28 313.86   Z   M 210.19 315.79   Q 212.52 316.49 210.59 315.22   A 0.63 0.52 40.8 0 0 209.91 315.21   Q 209.46 315.57 210.19 315.79   Z   M 168.81 329.14   Q 171.19 329.48 173.76 328.95   A 0.48 0.47 66.1 0 0 174.04 328.21   L 165.14 315.62   A 0.31 0.31 41.7 0 0 164.61 315.65   Q 160.94 322.67 164.62 326.93   Q 166.20 328.76 168.81 329.14   Z   M 320.07 322.58   Q 306.91 321.90 295.19 315.98   A 1.35 1.31 50.8 0 0 294.26 315.87   L 289.67 317.00   A 2.93 2.58 -73.1 0 0 288.31 317.84   L 279.83 327.32   A 2.76 2.41 -23.4 0 0 279.16 328.73   Q 277.51 341.62 272.04 352.00   A 0.31 0.30 13.0 0 0 272.32 352.44   Q 287.97 352.47 302.87 347.92   Q 305.21 347.21 306.95 345.52   Q 317.07 335.69 323.76 323.20   A 0.32 0.31 -74.3 0 0 323.51 322.73   Q 321.78 322.67 320.07 322.58   Z   M 194.31 324.08   Q 204.73 332.09 216.14 338.05   A 0.59 0.58 28.9 0 0 216.91 337.83   Q 219.71 332.99 220.62 326.93   A 1.30 1.15 30.5 0 0 220.29 325.91   L 213.76 318.71   A 1.56 0.67 57.5 0 0 212.95 318.16   L 207.60 317.40   A 4.37 2.75 -44.1 0 0 205.24 317.90   L 194.37 323.47   A 0.36 0.36 -39.5 0 0 194.31 324.08   Z   M 279.60 324.57   Q 279.58 325.44 280.16 324.80   L 285.45 318.93   Q 286.60 317.65 284.92 317.96   L 280.23 318.81   A 0.63 0.60 85.5 0 0 279.74 319.41   L 279.60 324.57   Z   M 220.57 323.64   Q 221.12 324.19 221.12 323.42   L 221.16 320.18   A 0.69 0.60 6.0 0 0 220.58 319.56   L 216.35 318.87   Q 215.73 318.77 216.17 319.21   L 220.57 323.64   Z   M 226.55 329.96   Q 237.54 340.15 250.39 347.78   A 1.77 1.76 -45.6 0 0 252.24 347.76   Q 266.20 338.95 277.84 327.28   A 1.27 1.22 -21.6 0 0 278.22 326.44   L 278.51 319.77   A 0.53 0.52 -2.8 0 0 277.91 319.23   Q 250.35 323.23 223.30 319.88   A 0.52 0.46 5.6 0 0 222.72 320.30   L 222.40 325.32   A 1.37 0.89 33.1 0 0 222.78 326.18   Q 224.60 328.14 226.55 329.96   Z   M 326.10 322.64   Q 320.14 334.13 311.43 343.70   Q 309.62 345.68 312.03 344.49   Q 314.18 343.43 316.87 342.06   Q 318.89 341.03 320.03 339.26   Q 324.87 331.77 326.71 322.96   Q 326.76 322.73 326.70 322.54   Q 326.52 321.84 326.10 322.64   Z   M 215.15 339.95   A 0.44 0.44 33.2 0 0 215.01 339.29   Q 203.00 332.93 192.34 324.87   A 0.92 0.84 -35.8 0 0 191.48 324.77   L 185.85 327.05   A 0.41 0.40 -28.7 0 0 185.66 327.65   Q 193.07 338.45 202.68 346.61   A 1.14 1.06 59.7 0 0 203.55 346.87   Q 210.65 345.73 215.15 339.95   Z   M 218.35 338.90   Q 232.84 346.05 248.26 349.44   Q 248.92 349.59 249.14 349.22   A 0.64 0.45 30.9 0 0 248.82 348.50   Q 234.78 340.23 222.80 328.17   Q 221.94 327.31 221.68 328.49   Q 220.55 333.77 218.14 338.21   A 0.51 0.50 -62.4 0 0 218.35 338.90   Z   M 188.87 341.64   Q 190.44 343.10 192.02 344.54   Q 193.95 346.29 195.49 346.71   Q 197.32 347.21 199.27 346.85   Q 199.76 346.76 199.39 346.40   Q 191.23 338.42 184.04 328.63   A 1.47 1.34 -26.4 0 0 182.44 328.17   L 179.17 329.27   A 0.94 0.90 -28.3 0 0 178.70 330.71   Q 183.67 336.82 188.87 341.64   Z   M 255.42 350.36   Q 262.47 352.23 269.22 352.25   A 1.12 1.12 -73.9 0 0 270.17 351.72   Q 276.15 341.94 277.61 330.15   Q 277.70 329.43 277.19 329.94   Q 266.18 340.81 255.04 347.88   Q 252.39 349.55 255.42 350.36   Z   M 178.23 338.83   L 174.96 331.19   A 0.75 0.69 75.6 0 0 174.25 330.73   L 169.24 331.17   Q 168.71 331.22 169.09 331.61   Q 173.12 335.80 177.95 339.07   Q 178.50 339.44 178.23 338.83   Z   M 183.94 342.81   Q 185.66 344.22 189.02 344.91   Q 189.47 345.00 189.14 344.65   L 178.33 333.38   Q 178.01 333.04 178.13 333.48   Q 179.86 339.50 183.94 342.81   Z   M 205.20 349.14   Q 212.81 355.14 219.86 358.71   A 1.66 1.65 55.0 0 0 220.81 358.88   Q 233.84 357.30 245.50 351.25   Q 246.08 350.95 245.45 350.79   Q 230.65 346.96 217.29 340.52   A 0.54 0.54 33.5 0 0 216.65 340.65   Q 211.58 346.52 205.34 348.40   Q 204.57 348.64 205.20 349.14   Z   M 320.19 342.73   Q 318.98 344.22 321.48 341.98   Q 323.05 340.58 320.74 342.22   Q 320.43 342.44 320.19 342.73   Z   M 180.94 343.80   Q 183.38 344.90 181.07 343.36   A 0.89 0.72 53.6 0 0 180.50 343.21   Q 179.84 343.31 180.94 343.80   Z   M 297.25 356.65   Q 307.50 353.80 314.57 346.30   Q 316.14 344.64 314.07 345.61   Q 311.70 346.71 308.88 347.78   Q 306.83 348.56 304.00 351.00   Q 300.75 353.80 297.07 356.26   Q 295.96 357.01 297.25 356.65   Z   M 187.39 347.28   Q 195.01 354.75 204.72 357.48   Q 206.26 357.92 204.97 356.97   Q 199.72 353.12 194.06 349.05   Q 192.74 348.10 191.06 347.63   Q 189.08 347.08 187.85 346.58   Q 185.87 345.78 187.39 347.28   Z   M 197.84 349.54   Q 203.86 354.27 210.05 357.96   Q 212.43 359.38 215.20 358.93   Q 216.33 358.75 215.33 358.20   Q 209.21 354.81 203.88 350.34   Q 202.45 349.14 201.13 349.04   Q 199.79 348.94 197.94 349.16   Q 197.43 349.22 197.84 349.54   Z   M 270.42 355.96   Q 279.20 358.69 288.32 358.16   Q 290.94 358.00 293.20 356.61   Q 297.21 354.14 301.00 350.92   Q 301.74 350.30 300.80 350.54   Q 285.88 354.42 271.26 354.26   Q 270.64 354.25 270.27 354.43   Q 269.53 354.78 269.71 355.37   A 1.11 0.72 6.8 0 0 270.42 355.96   Z   M 265.70 356.62   Q 258.00 352.96 249.62 351.69   A 2.33 2.30 35.3 0 0 248.22 351.92   Q 236.16 358.01 224.10 360.23   Q 223.37 360.37 224.05 360.68   Q 231.89 364.29 240.30 366.07   Q 244.00 366.85 244.71 366.91   Q 246.79 367.07 249.25 366.50   Q 258.96 364.26 265.82 357.31   A 0.43 0.43 -55.0 0 0 265.70 356.62   Z   M 264.66 354.40   Q 265.88 354.80 267.12 355.15   Q 267.55 355.26 267.88 355.13   Q 268.80 354.75 267.73 354.09   A 2.54 2.51 59.5 0 0 266.30 353.71   Q 262.87 353.80 264.66 354.40   Z   M 286.05 360.48   Q 275.77 359.48 268.54 357.45   A 0.80 0.78 27.9 0 0 267.74 357.68   Q 261.92 364.18 253.67 367.19   Q 252.22 367.72 253.76 367.75   Q 270.92 368.05 286.07 360.59   Q 286.25 360.50 286.05 360.48   Z   M 232.75 366.54   Q 238.55 367.31 233.04 366.25   Q 227.13 364.16 221.47 361.49   Q 220.11 360.85 219.05 360.77   Q 217.88 360.68 216.48 360.79   Q 215.51 360.88 216.39 361.29   Q 224.26 364.99 232.75 366.54   Z"/>
</svg>